solid OpenSCAD_Model
  facet normal 0 -4.44089e-16 -1
    outer loop
      vertex -80 -1.55431e-15 -3.5
      vertex -79.7815 2.07912 -3.5
      vertex -79.7815 -2.07912 -3.5
    endloop
  endfacet
  facet normal 0 -4.44089e-16 -1
    outer loop
      vertex -79.7815 -2.07912 -3.5
      vertex -79.7815 2.07912 -3.5
      vertex -79.1355 4.06737 -3.5
    endloop
  endfacet
  facet normal 0 -4.44089e-16 -1
    outer loop
      vertex -79.7815 -2.07912 -3.5
      vertex -79.1355 4.06737 -3.5
      vertex -78.0902 5.87785 -3.5
    endloop
  endfacet
  facet normal 0 -4.44089e-16 -1
    outer loop
      vertex -79.7815 -2.07912 -3.5
      vertex -78.0902 5.87785 -3.5
      vertex -76.6913 7.43145 -3.5
    endloop
  endfacet
  facet normal 0 -4.44089e-16 -1
    outer loop
      vertex -79.7815 -2.07912 -3.5
      vertex -76.6913 7.43145 -3.5
      vertex -75 8.66025 -3.5
    endloop
  endfacet
  facet normal 0 -4.44089e-16 -1
    outer loop
      vertex -79.7815 -2.07912 -3.5
      vertex -75 8.66025 -3.5
      vertex -73.0902 9.51056 -3.5
    endloop
  endfacet
  facet normal 0 -4.44089e-16 -1
    outer loop
      vertex -79.7815 -2.07912 -3.5
      vertex -73.0902 9.51056 -3.5
      vertex -71.0453 9.94522 -3.5
    endloop
  endfacet
  facet normal 0 -4.44089e-16 -1
    outer loop
      vertex -79.7815 -2.07912 -3.5
      vertex -71.0453 9.94522 -3.5
      vertex -68.9547 9.94522 -3.5
    endloop
  endfacet
  facet normal 0 -4.44089e-16 -1
    outer loop
      vertex -79.7815 -2.07912 -3.5
      vertex -68.9547 9.94522 -3.5
      vertex -66.9098 9.51056 -3.5
    endloop
  endfacet
  facet normal 0 -4.44089e-16 -1
    outer loop
      vertex -79.7815 -2.07912 -3.5
      vertex -66.9098 9.51056 -3.5
      vertex -65 8.66025 -3.5
    endloop
  endfacet
  facet normal 0 -4.44089e-16 -1
    outer loop
      vertex -69.5179 3.97084 -3.5
      vertex -65 8.66025 -3.5
      vertex -63.3087 7.43145 -3.5
    endloop
  endfacet
  facet normal 0 -4.44089e-16 -1
    outer loop
      vertex -67.7277 3.29194 -3.5
      vertex -63.3087 7.43145 -3.5
      vertex -61.9098 5.87785 -3.5
    endloop
  endfacet
  facet normal 0 -4.44089e-16 -1
    outer loop
      vertex -73.8838 -0.957263 -3.5
      vertex -79.7815 -2.07912 -3.5
      vertex -73.8838 0.957263 -3.5
    endloop
  endfacet
  facet normal 0 -4.44089e-16 -1
    outer loop
      vertex -66.4582 1.85889 -3.5
      vertex -60.8645 4.06737 -3.5
      vertex -60.2185 2.07912 -3.5
    endloop
  endfacet
  facet normal 0 -4.44089e-16 -1
    outer loop
      vertex -66 -1.55431e-15 -3.5
      vertex -60.2185 2.07912 -3.5
      vertex -60 -1.55431e-15 -3.5
    endloop
  endfacet
  facet normal 0 -4.44089e-16 -1
    outer loop
      vertex -66 6.66134e-16 -3.5
      vertex -60.2185 2.07912 -3.5
      vertex -66 -1.55431e-15 -3.5
    endloop
  endfacet
  facet normal 0 -4.44089e-16 -1
    outer loop
      vertex -67.7277 3.29194 -3.5
      vertex -61.9098 5.87785 -3.5
      vertex -60.8645 4.06737 -3.5
    endloop
  endfacet
  facet normal 0 -4.44089e-16 -1
    outer loop
      vertex -69.5179 3.97084 -3.5
      vertex -63.3087 7.43145 -3.5
      vertex -67.7277 3.29194 -3.5
    endloop
  endfacet
  facet normal 0 -4.44089e-16 -1
    outer loop
      vertex -71.4184 3.74007 -3.5
      vertex -65 8.66025 -3.5
      vertex -69.5179 3.97084 -3.5
    endloop
  endfacet
  facet normal 0 -4.44089e-16 -1
    outer loop
      vertex -73.8838 0.957263 -3.5
      vertex -79.7815 -2.07912 -3.5
      vertex -72.994 2.65249 -3.5
    endloop
  endfacet
  facet normal 0 -4.44089e-16 -1
    outer loop
      vertex -72.994 2.65249 -3.5
      vertex -65 8.66025 -3.5
      vertex -71.4184 3.74007 -3.5
    endloop
  endfacet
  facet normal 0 -4.44089e-16 -1
    outer loop
      vertex -79.7815 -2.07912 -3.5
      vertex -65 8.66025 -3.5
      vertex -72.994 2.65249 -3.5
    endloop
  endfacet
  facet normal 0 -4.44089e-16 -1
    outer loop
      vertex -67.7277 3.29194 -3.5
      vertex -60.8645 4.06737 -3.5
      vertex -66.4582 1.85889 -3.5
    endloop
  endfacet
  facet normal 0 -4.44089e-16 -1
    outer loop
      vertex -79.7815 -2.07912 -3.5
      vertex -72.994 -2.65249 -3.5
      vertex -71.4184 -3.74006 -3.5
    endloop
  endfacet
  facet normal 0 -4.44089e-16 -1
    outer loop
      vertex -71.4184 -3.74006 -3.5
      vertex -70 -3.91229 -3.5
      vertex -70 -9.94522 -3.5
    endloop
  endfacet
  facet normal 0 -4.44089e-16 -1
    outer loop
      vertex -71.4184 -3.74006 -3.5
      vertex -70 -9.94522 -3.5
      vertex -79.7815 -2.07912 -3.5
    endloop
  endfacet
  facet normal 0 -4.44089e-16 -1
    outer loop
      vertex -79.7815 -2.07912 -3.5
      vertex -70 -9.94522 -3.5
      vertex -71.0453 -9.94522 -3.5
    endloop
  endfacet
  facet normal 0 -4.44089e-16 -1
    outer loop
      vertex -79.7815 -2.07912 -3.5
      vertex -71.0453 -9.94522 -3.5
      vertex -73.0902 -9.51056 -3.5
    endloop
  endfacet
  facet normal 0 -4.44089e-16 -1
    outer loop
      vertex -79.7815 -2.07912 -3.5
      vertex -73.0902 -9.51056 -3.5
      vertex -75 -8.66025 -3.5
    endloop
  endfacet
  facet normal 0 -4.44089e-16 -1
    outer loop
      vertex -79.7815 -2.07912 -3.5
      vertex -75 -8.66025 -3.5
      vertex -76.6913 -7.43145 -3.5
    endloop
  endfacet
  facet normal 0 -4.44089e-16 -1
    outer loop
      vertex -79.7815 -2.07912 -3.5
      vertex -76.6913 -7.43145 -3.5
      vertex -78.0902 -5.87785 -3.5
    endloop
  endfacet
  facet normal 0 -4.44089e-16 -1
    outer loop
      vertex -79.7815 -2.07912 -3.5
      vertex -78.0902 -5.87785 -3.5
      vertex -79.1355 -4.06737 -3.5
    endloop
  endfacet
  facet normal 0 -4.44089e-16 -1
    outer loop
      vertex -66.4582 1.85889 -3.5
      vertex -60.2185 2.07912 -3.5
      vertex -66 6.66134e-16 -3.5
    endloop
  endfacet
  facet normal 0 -4.44089e-16 -1
    outer loop
      vertex -72.994 -2.65249 -3.5
      vertex -79.7815 -2.07912 -3.5
      vertex -73.8838 -0.957263 -3.5
    endloop
  endfacet
  facet normal -0.994522 0.104528 -4.642e-17
    outer loop
      vertex -80 -1.55431e-15 -3.5
      vertex -80 1.55431e-15 3.5
      vertex -79.7815 2.07912 -3.5
    endloop
  endfacet
  facet normal -0.994522 0.104528 -4.642e-17
    outer loop
      vertex -79.7815 2.07912 -3.5
      vertex -80 1.55431e-15 3.5
      vertex -79.7815 2.07912 3.5
    endloop
  endfacet
  facet normal -0.994522 -0.104528 4.642e-17
    outer loop
      vertex -80 -1.55431e-15 -3.5
      vertex -79.7815 -2.07912 -3.5
      vertex -80 1.55431e-15 3.5
    endloop
  endfacet
  facet normal -0.994522 -0.104528 4.642e-17
    outer loop
      vertex -80 1.55431e-15 3.5
      vertex -79.7815 -2.07912 -3.5
      vertex -79.7815 -2.07912 3.5
    endloop
  endfacet
  facet normal -0.951057 -0.309017 1.37231e-16
    outer loop
      vertex -79.7815 -2.07912 -3.5
      vertex -79.1355 -4.06737 -3.5
      vertex -79.7815 -2.07912 3.5
    endloop
  endfacet
  facet normal -0.951057 -0.309017 1.37231e-16
    outer loop
      vertex -79.7815 -2.07912 3.5
      vertex -79.1355 -4.06737 -3.5
      vertex -79.1355 -4.06737 3.5
    endloop
  endfacet
  facet normal -0.866025 -0.5 2.22045e-16
    outer loop
      vertex -79.1355 -4.06737 -3.5
      vertex -78.0902 -5.87785 -3.5
      vertex -79.1355 -4.06737 3.5
    endloop
  endfacet
  facet normal -0.866025 -0.5 2.22045e-16
    outer loop
      vertex -79.1355 -4.06737 3.5
      vertex -78.0902 -5.87785 -3.5
      vertex -78.0902 -5.87785 3.5
    endloop
  endfacet
  facet normal -0.743145 -0.669131 2.97154e-16
    outer loop
      vertex -78.0902 -5.87785 -3.5
      vertex -76.6913 -7.43145 -3.5
      vertex -78.0902 -5.87785 3.5
    endloop
  endfacet
  facet normal -0.743145 -0.669131 2.97154e-16
    outer loop
      vertex -78.0902 -5.87785 3.5
      vertex -76.6913 -7.43145 -3.5
      vertex -76.6913 -7.43145 3.5
    endloop
  endfacet
  facet normal -0.587785 -0.809017 3.59276e-16
    outer loop
      vertex -76.6913 -7.43145 3.5
      vertex -76.6913 -7.43145 -3.5
      vertex -75 -8.66025 -3.5
    endloop
  endfacet
  facet normal -0.587785 -0.809017 3.59276e-16
    outer loop
      vertex -75 -8.66025 3.5
      vertex -76.6913 -7.43145 3.5
      vertex -75 -8.66025 -3.5
    endloop
  endfacet
  facet normal -0.406737 -0.913545 4.05696e-16
    outer loop
      vertex -75 -8.66025 3.5
      vertex -75 -8.66025 -3.5
      vertex -73.0902 -9.51056 -3.5
    endloop
  endfacet
  facet normal -0.406737 -0.913545 4.05696e-16
    outer loop
      vertex -73.0902 -9.51056 3.5
      vertex -75 -8.66025 3.5
      vertex -73.0902 -9.51056 -3.5
    endloop
  endfacet
  facet normal -0.207912 -0.978148 4.34385e-16
    outer loop
      vertex -73.0902 -9.51056 3.5
      vertex -73.0902 -9.51056 -3.5
      vertex -71.0453 -9.94522 -3.5
    endloop
  endfacet
  facet normal -0.207912 -0.978148 4.34385e-16
    outer loop
      vertex -71.0453 -9.94522 3.5
      vertex -73.0902 -9.51056 3.5
      vertex -71.0453 -9.94522 -3.5
    endloop
  endfacet
  facet normal 0 -1 4.44089e-16
    outer loop
      vertex -71.0453 -9.94522 3.5
      vertex -71.0453 -9.94522 -3.5
      vertex -70 -9.94522 -3.5
    endloop
  endfacet
  facet normal 0 -1 4.44089e-16
    outer loop
      vertex -68.9547 -9.94522 3.5
      vertex -71.0453 -9.94522 3.5
      vertex -70 -9.94522 3.5
    endloop
  endfacet
  facet normal 0 -1 4.44089e-16
    outer loop
      vertex -70 -9.94522 3.5
      vertex -71.0453 -9.94522 3.5
      vertex -70 -9.94522 -3.5
    endloop
  endfacet
  facet normal -1 0 0
    outer loop
      vertex -70 -9.94522 -3.5
      vertex -70 -10 -3.5
      vertex -70 -10 3.5
    endloop
  endfacet
  facet normal -1 0 0
    outer loop
      vertex -70 -3.91229 -3.5
      vertex -70 -10 -3.5
      vertex -70 -9.94522 -3.5
    endloop
  endfacet
  facet normal -1 0 0
    outer loop
      vertex -70 -9.94522 -3.5
      vertex -70 -10 3.5
      vertex -70 -9.94522 3.5
    endloop
  endfacet
  facet normal 0.120536 0.992709 -4.40851e-16
    outer loop
      vertex -69.5179 -3.97083 3.5
      vertex -69.5179 -3.97083 -3.5
      vertex -71.4184 -3.74006 3.5
    endloop
  endfacet
  facet normal 0.120536 0.992709 -4.40851e-16
    outer loop
      vertex -71.4184 -3.74006 3.5
      vertex -69.5179 -3.97083 -3.5
      vertex -70 -3.91229 -3.5
    endloop
  endfacet
  facet normal 0.120536 0.992709 -4.40851e-16
    outer loop
      vertex -71.4184 -3.74006 -3.5
      vertex -71.4184 -3.74006 3.5
      vertex -70 -3.91229 -3.5
    endloop
  endfacet
  facet normal 0.568065 0.822984 -3.65478e-16
    outer loop
      vertex -71.4184 -3.74006 3.5
      vertex -71.4184 -3.74006 -3.5
      vertex -72.994 -2.65249 3.5
    endloop
  endfacet
  facet normal 0.568065 0.822984 -3.65478e-16
    outer loop
      vertex -72.994 -2.65249 3.5
      vertex -71.4184 -3.74006 -3.5
      vertex -72.994 -2.65249 -3.5
    endloop
  endfacet
  facet normal 0.885456 0.464723 -2.06378e-16
    outer loop
      vertex -73.8838 -0.957263 3.5
      vertex -72.994 -2.65249 3.5
      vertex -72.994 -2.65249 -3.5
    endloop
  endfacet
  facet normal 0.885456 0.464723 -2.06378e-16
    outer loop
      vertex -73.8838 -0.957263 -3.5
      vertex -73.8838 -0.957263 3.5
      vertex -72.994 -2.65249 -3.5
    endloop
  endfacet
  facet normal 1 0 0
    outer loop
      vertex -73.8838 0.957263 3.5
      vertex -73.8838 -0.957263 3.5
      vertex -73.8838 -0.957263 -3.5
    endloop
  endfacet
  facet normal 1 0 0
    outer loop
      vertex -73.8838 0.957263 -3.5
      vertex -73.8838 0.957263 3.5
      vertex -73.8838 -0.957263 -3.5
    endloop
  endfacet
  facet normal 0.885456 -0.464723 2.06378e-16
    outer loop
      vertex -72.994 2.65249 -3.5
      vertex -72.994 2.65249 3.5
      vertex -73.8838 0.957263 3.5
    endloop
  endfacet
  facet normal 0.885456 -0.464723 2.06378e-16
    outer loop
      vertex -73.8838 0.957263 -3.5
      vertex -72.994 2.65249 -3.5
      vertex -73.8838 0.957263 3.5
    endloop
  endfacet
  facet normal 0.568065 -0.822984 3.65478e-16
    outer loop
      vertex -71.4184 3.74007 -3.5
      vertex -71.4184 3.74007 3.5
      vertex -72.994 2.65249 3.5
    endloop
  endfacet
  facet normal 0.568065 -0.822984 3.65478e-16
    outer loop
      vertex -72.994 2.65249 -3.5
      vertex -71.4184 3.74007 -3.5
      vertex -72.994 2.65249 3.5
    endloop
  endfacet
  facet normal 0.120536 -0.992709 4.40851e-16
    outer loop
      vertex -69.5179 3.97084 -3.5
      vertex -69.5179 3.97084 3.5
      vertex -70 3.91229 3.5
    endloop
  endfacet
  facet normal 0.120536 -0.992709 4.40851e-16
    outer loop
      vertex -71.4184 3.74007 3.5
      vertex -69.5179 3.97084 -3.5
      vertex -70 3.91229 3.5
    endloop
  endfacet
  facet normal 0.120536 -0.992709 4.40851e-16
    outer loop
      vertex -71.4184 3.74007 -3.5
      vertex -69.5179 3.97084 -3.5
      vertex -71.4184 3.74007 3.5
    endloop
  endfacet
  facet normal -0.354605 -0.935016 4.15231e-16
    outer loop
      vertex -67.7277 3.29194 -3.5
      vertex -67.7277 3.29194 3.5
      vertex -69.5179 3.97084 3.5
    endloop
  endfacet
  facet normal -0.354605 -0.935016 4.15231e-16
    outer loop
      vertex -69.5179 3.97084 -3.5
      vertex -67.7277 3.29194 -3.5
      vertex -69.5179 3.97084 3.5
    endloop
  endfacet
  facet normal -0.748511 -0.663123 2.94486e-16
    outer loop
      vertex -66.4582 1.85889 3.5
      vertex -67.7277 3.29194 3.5
      vertex -66.4582 1.85889 -3.5
    endloop
  endfacet
  facet normal -0.748511 -0.663123 2.94486e-16
    outer loop
      vertex -66.4582 1.85889 -3.5
      vertex -67.7277 3.29194 3.5
      vertex -67.7277 3.29194 -3.5
    endloop
  endfacet
  facet normal -0.970942 -0.239316 1.06278e-16
    outer loop
      vertex -66 3.77476e-15 3.5
      vertex -66.4582 1.85889 3.5
      vertex -66 6.66134e-16 -3.5
    endloop
  endfacet
  facet normal -0.970942 -0.239316 1.06278e-16
    outer loop
      vertex -66 6.66134e-16 -3.5
      vertex -66.4582 1.85889 3.5
      vertex -66.4582 1.85889 -3.5
    endloop
  endfacet
  facet normal -0.970942 0.239316 -1.06278e-16
    outer loop
      vertex -66 1.55431e-15 3.5
      vertex -66 3.77476e-15 3.5
      vertex -66 6.66134e-16 -3.5
    endloop
  endfacet
  facet normal -0.970942 0.239316 -1.06278e-16
    outer loop
      vertex -66 1.55431e-15 3.5
      vertex -66 6.66134e-16 -3.5
      vertex -66.4582 -1.85889 3.5
    endloop
  endfacet
  facet normal -0.970942 0.239316 -1.06278e-16
    outer loop
      vertex -66 6.66134e-16 -3.5
      vertex -66 -1.55431e-15 -3.5
      vertex -66.4582 -1.85889 3.5
    endloop
  endfacet
  facet normal -0.970942 0.239316 -1.06278e-16
    outer loop
      vertex -66 -1.55431e-15 -3.5
      vertex -66.4582 -1.85889 -3.5
      vertex -66.4582 -1.85889 3.5
    endloop
  endfacet
  facet normal 0 -2.22045e-16 -1
    outer loop
      vertex -70 10 -3.5
      vertex 30 10 -3.5
      vertex -70 9.94522 -3.5
    endloop
  endfacet
  facet normal 0 -2.22045e-16 -1
    outer loop
      vertex 70 20 -3.5
      vertex 30 10 -3.5
      vertex 30 20 -3.5
    endloop
  endfacet
  facet normal 0 -2.22045e-16 -1
    outer loop
      vertex 49.555 9.44986 -3.5
      vertex 30 10 -3.5
      vertex 70 20 -3.5
    endloop
  endfacet
  facet normal 0 -2.22045e-16 -1
    outer loop
      vertex 51.247 -5.93634 -3.5
      vertex 30 10 -3.5
      vertex 70 -20 -3.5
    endloop
  endfacet
  facet normal 0 -2.22045e-16 -1
    outer loop
      vertex -70 -10 -3.5
      vertex -67.7277 -3.29193 -3.5
      vertex -66.4582 -1.85889 -3.5
    endloop
  endfacet
  facet normal 0 -2.22045e-16 -1
    outer loop
      vertex -66.9098 9.51056 -3.5
      vertex 30 10 -3.5
      vertex 30 -10 -3.5
    endloop
  endfacet
  facet normal 0 -2.22045e-16 -1
    outer loop
      vertex -70 -10 -3.5
      vertex -70 -3.91229 -3.5
      vertex -69.5179 -3.97083 -3.5
    endloop
  endfacet
  facet normal 0 -2.22045e-16 -1
    outer loop
      vertex -66.9098 9.51056 -3.5
      vertex 30 -10 -3.5
      vertex -65 8.66025 -3.5
    endloop
  endfacet
  facet normal 0 -2.22045e-16 -1
    outer loop
      vertex -70 -10 -3.5
      vertex -69.5179 -3.97083 -3.5
      vertex -67.7277 -3.29193 -3.5
    endloop
  endfacet
  facet normal 0 -2.22045e-16 -1
    outer loop
      vertex -68.9547 9.94522 -3.5
      vertex 30 10 -3.5
      vertex -66.9098 9.51056 -3.5
    endloop
  endfacet
  facet normal 0 -2.22045e-16 -1
    outer loop
      vertex 51.247 5.93634 -3.5
      vertex 70 -20 -3.5
      vertex 49.555 5.55014 -3.5
    endloop
  endfacet
  facet normal 0 -2.22045e-16 -1
    outer loop
      vertex -70 9.94522 -3.5
      vertex 30 10 -3.5
      vertex -68.9547 9.94522 -3.5
    endloop
  endfacet
  facet normal 0 -2.22045e-16 -1
    outer loop
      vertex 48.1981 6.63223 -3.5
      vertex 30 10 -3.5
      vertex 48.1981 8.36777 -3.5
    endloop
  endfacet
  facet normal 0 -2.22045e-16 -1
    outer loop
      vertex 70 -20 -3.5
      vertex 30 10 -3.5
      vertex 48.1981 6.63223 -3.5
    endloop
  endfacet
  facet normal 0 -2.22045e-16 -1
    outer loop
      vertex 70 -20 -3.5
      vertex 48.1981 6.63223 -3.5
      vertex 49.555 5.55014 -3.5
    endloop
  endfacet
  facet normal 0 -2.22045e-16 -1
    outer loop
      vertex 49.555 9.44986 -3.5
      vertex 70 20 -3.5
      vertex 51.247 9.06366 -3.5
    endloop
  endfacet
  facet normal 0 -2.22045e-16 -1
    outer loop
      vertex 70 -20 -3.5
      vertex 51.247 5.93634 -3.5
      vertex 70 20 -3.5
    endloop
  endfacet
  facet normal 0 -2.22045e-16 -1
    outer loop
      vertex 51.247 5.93634 -3.5
      vertex 52 7.5 -3.5
      vertex 70 20 -3.5
    endloop
  endfacet
  facet normal 0 -2.22045e-16 -1
    outer loop
      vertex 52 7.5 -3.5
      vertex 51.247 9.06366 -3.5
      vertex 70 20 -3.5
    endloop
  endfacet
  facet normal 0 -2.22045e-16 -1
    outer loop
      vertex 48.1981 8.36777 -3.5
      vertex 30 10 -3.5
      vertex 49.555 9.44986 -3.5
    endloop
  endfacet
  facet normal 0 -2.22045e-16 -1
    outer loop
      vertex 48.1981 -6.63223 -3.5
      vertex 30 10 -3.5
      vertex 49.555 -5.55014 -3.5
    endloop
  endfacet
  facet normal 0 -2.22045e-16 -1
    outer loop
      vertex 30 -10 -3.5
      vertex 30 10 -3.5
      vertex 48.1981 -6.63223 -3.5
    endloop
  endfacet
  facet normal 0 -2.22045e-16 -1
    outer loop
      vertex 30 -10 -3.5
      vertex 48.1981 -6.63223 -3.5
      vertex 48.1981 -8.36777 -3.5
    endloop
  endfacet
  facet normal 0 -2.22045e-16 -1
    outer loop
      vertex 30 -10 -3.5
      vertex 48.1981 -8.36777 -3.5
      vertex 49.555 -9.44986 -3.5
    endloop
  endfacet
  facet normal 0 -2.22045e-16 -1
    outer loop
      vertex 30 -10 -3.5
      vertex 49.555 -9.44986 -3.5
      vertex 70 -20 -3.5
    endloop
  endfacet
  facet normal 0 -2.22045e-16 -1
    outer loop
      vertex 52 -7.5 -3.5
      vertex 70 -20 -3.5
      vertex 51.247 -9.06366 -3.5
    endloop
  endfacet
  facet normal 0 -2.22045e-16 -1
    outer loop
      vertex 51.247 -9.06366 -3.5
      vertex 70 -20 -3.5
      vertex 49.555 -9.44986 -3.5
    endloop
  endfacet
  facet normal 0 -2.22045e-16 -1
    outer loop
      vertex 49.555 -5.55014 -3.5
      vertex 30 10 -3.5
      vertex 51.247 -5.93634 -3.5
    endloop
  endfacet
  facet normal 0 -2.22045e-16 -1
    outer loop
      vertex 52 -7.5 -3.5
      vertex 51.247 -5.93634 -3.5
      vertex 70 -20 -3.5
    endloop
  endfacet
  facet normal 0 -2.22045e-16 -1
    outer loop
      vertex 30 -10 -3.5
      vertex 70 -20 -3.5
      vertex 30 -20 -3.5
    endloop
  endfacet
  facet normal 0 -2.22045e-16 -1
    outer loop
      vertex -66.4582 -1.85889 -3.5
      vertex -66 -1.55431e-15 -3.5
      vertex -60 -1.55431e-15 -3.5
    endloop
  endfacet
  facet normal 0 -2.22045e-16 -1
    outer loop
      vertex -70 -10 -3.5
      vertex -66.4582 -1.85889 -3.5
      vertex -60 -1.55431e-15 -3.5
    endloop
  endfacet
  facet normal 0 -2.22045e-16 -1
    outer loop
      vertex -63.3087 7.43145 -3.5
      vertex -65 8.66025 -3.5
      vertex 30 -10 -3.5
    endloop
  endfacet
  facet normal 0 -2.22045e-16 -1
    outer loop
      vertex -61.9098 5.87785 -3.5
      vertex -63.3087 7.43145 -3.5
      vertex 30 -10 -3.5
    endloop
  endfacet
  facet normal 0 -2.22045e-16 -1
    outer loop
      vertex -60.8645 4.06737 -3.5
      vertex -61.9098 5.87785 -3.5
      vertex 30 -10 -3.5
    endloop
  endfacet
  facet normal 0 -2.22045e-16 -1
    outer loop
      vertex -60.2185 2.07912 -3.5
      vertex -60.8645 4.06737 -3.5
      vertex 30 -10 -3.5
    endloop
  endfacet
  facet normal 0 -2.22045e-16 -1
    outer loop
      vertex -60 -1.55431e-15 -3.5
      vertex -60.2185 2.07912 -3.5
      vertex 30 -10 -3.5
    endloop
  endfacet
  facet normal 0 -2.22045e-16 -1
    outer loop
      vertex -70 -10 -3.5
      vertex -60 -1.55431e-15 -3.5
      vertex 30 -10 -3.5
    endloop
  endfacet
  facet normal 0 1 -4.44089e-16
    outer loop
      vertex -71.0453 9.94522 -3.5
      vertex -71.0453 9.94522 3.5
      vertex -70 9.94522 -3.5
    endloop
  endfacet
  facet normal 0 1 -4.44089e-16
    outer loop
      vertex -71.0453 9.94522 -3.5
      vertex -70 9.94522 -3.5
      vertex -68.9547 9.94522 -3.5
    endloop
  endfacet
  facet normal 0 1 -4.44089e-16
    outer loop
      vertex -70 9.94522 -3.5
      vertex -71.0453 9.94522 3.5
      vertex -70 9.94522 3.5
    endloop
  endfacet
  facet normal -0.207912 0.978148 -4.34385e-16
    outer loop
      vertex -73.0902 9.51056 -3.5
      vertex -73.0902 9.51056 3.5
      vertex -71.0453 9.94522 -3.5
    endloop
  endfacet
  facet normal -0.207912 0.978148 -4.34385e-16
    outer loop
      vertex -71.0453 9.94522 -3.5
      vertex -73.0902 9.51056 3.5
      vertex -71.0453 9.94522 3.5
    endloop
  endfacet
  facet normal -0.406737 0.913545 -4.05696e-16
    outer loop
      vertex -75 8.66025 -3.5
      vertex -75 8.66025 3.5
      vertex -73.0902 9.51056 -3.5
    endloop
  endfacet
  facet normal -0.406737 0.913545 -4.05696e-16
    outer loop
      vertex -73.0902 9.51056 -3.5
      vertex -75 8.66025 3.5
      vertex -73.0902 9.51056 3.5
    endloop
  endfacet
  facet normal -0.587785 0.809017 -3.59276e-16
    outer loop
      vertex -76.6913 7.43145 -3.5
      vertex -76.6913 7.43145 3.5
      vertex -75 8.66025 -3.5
    endloop
  endfacet
  facet normal -0.587785 0.809017 -3.59276e-16
    outer loop
      vertex -75 8.66025 -3.5
      vertex -76.6913 7.43145 3.5
      vertex -75 8.66025 3.5
    endloop
  endfacet
  facet normal -0.743145 0.669131 -2.97154e-16
    outer loop
      vertex -78.0902 5.87785 -3.5
      vertex -78.0902 5.87785 3.5
      vertex -76.6913 7.43145 -3.5
    endloop
  endfacet
  facet normal -0.743145 0.669131 -2.97154e-16
    outer loop
      vertex -76.6913 7.43145 -3.5
      vertex -78.0902 5.87785 3.5
      vertex -76.6913 7.43145 3.5
    endloop
  endfacet
  facet normal -0.866025 0.5 -2.22045e-16
    outer loop
      vertex -79.1355 4.06737 -3.5
      vertex -79.1355 4.06737 3.5
      vertex -78.0902 5.87785 -3.5
    endloop
  endfacet
  facet normal -0.866025 0.5 -2.22045e-16
    outer loop
      vertex -78.0902 5.87785 -3.5
      vertex -79.1355 4.06737 3.5
      vertex -78.0902 5.87785 3.5
    endloop
  endfacet
  facet normal -0.951057 0.309017 -1.37231e-16
    outer loop
      vertex -79.7815 2.07912 -3.5
      vertex -79.7815 2.07912 3.5
      vertex -79.1355 4.06737 -3.5
    endloop
  endfacet
  facet normal -0.951057 0.309017 -1.37231e-16
    outer loop
      vertex -79.1355 4.06737 -3.5
      vertex -79.7815 2.07912 3.5
      vertex -79.1355 4.06737 3.5
    endloop
  endfacet
  facet normal 0 4.44089e-16 1
    outer loop
      vertex -79.7815 2.07912 3.5
      vertex -80 1.55431e-15 3.5
      vertex -79.7815 -2.07912 3.5
    endloop
  endfacet
  facet normal 0 4.44089e-16 1
    outer loop
      vertex -78.0902 -5.87785 3.5
      vertex -79.7815 2.07912 3.5
      vertex -79.1355 -4.06737 3.5
    endloop
  endfacet
  facet normal 0 4.44089e-16 1
    outer loop
      vertex -79.1355 -4.06737 3.5
      vertex -79.7815 2.07912 3.5
      vertex -79.7815 -2.07912 3.5
    endloop
  endfacet
  facet normal 0 4.44089e-16 1
    outer loop
      vertex -76.6913 -7.43145 3.5
      vertex -79.7815 2.07912 3.5
      vertex -78.0902 -5.87785 3.5
    endloop
  endfacet
  facet normal 0 4.44089e-16 1
    outer loop
      vertex -75 -8.66025 3.5
      vertex -79.7815 2.07912 3.5
      vertex -76.6913 -7.43145 3.5
    endloop
  endfacet
  facet normal 0 4.44089e-16 1
    outer loop
      vertex -73.0902 -9.51056 3.5
      vertex -79.7815 2.07912 3.5
      vertex -75 -8.66025 3.5
    endloop
  endfacet
  facet normal 0 4.44089e-16 1
    outer loop
      vertex -71.0453 -9.94522 3.5
      vertex -79.7815 2.07912 3.5
      vertex -73.0902 -9.51056 3.5
    endloop
  endfacet
  facet normal 0 4.44089e-16 1
    outer loop
      vertex -68.9547 -9.94522 3.5
      vertex -79.7815 2.07912 3.5
      vertex -71.0453 -9.94522 3.5
    endloop
  endfacet
  facet normal 0 4.44089e-16 1
    outer loop
      vertex -66.9098 -9.51056 3.5
      vertex -79.7815 2.07912 3.5
      vertex -68.9547 -9.94522 3.5
    endloop
  endfacet
  facet normal 0 4.44089e-16 1
    outer loop
      vertex -65 -8.66025 3.5
      vertex -79.7815 2.07912 3.5
      vertex -66.9098 -9.51056 3.5
    endloop
  endfacet
  facet normal 0 4.44089e-16 1
    outer loop
      vertex -72.994 -2.65249 3.5
      vertex -79.7815 2.07912 3.5
      vertex -65 -8.66025 3.5
    endloop
  endfacet
  facet normal 0 4.44089e-16 1
    outer loop
      vertex -67.7277 -3.29193 3.5
      vertex -69.5179 -3.97083 3.5
      vertex -63.3087 -7.43145 3.5
    endloop
  endfacet
  facet normal 0 4.44089e-16 1
    outer loop
      vertex -66.4582 -1.85889 3.5
      vertex -61.9098 -5.87785 3.5
      vertex -60.8645 -4.06737 3.5
    endloop
  endfacet
  facet normal 0 4.44089e-16 1
    outer loop
      vertex -60 1.55431e-15 3.5
      vertex -66 1.55431e-15 3.5
      vertex -60.2185 -2.07912 3.5
    endloop
  endfacet
  facet normal 0 4.44089e-16 1
    outer loop
      vertex -60.2185 -2.07912 3.5
      vertex -66.4582 -1.85889 3.5
      vertex -60.8645 -4.06737 3.5
    endloop
  endfacet
  facet normal 0 4.44089e-16 1
    outer loop
      vertex -61.9098 -5.87785 3.5
      vertex -67.7277 -3.29193 3.5
      vertex -63.3087 -7.43145 3.5
    endloop
  endfacet
  facet normal 0 4.44089e-16 1
    outer loop
      vertex -63.3087 -7.43145 3.5
      vertex -69.5179 -3.97083 3.5
      vertex -65 -8.66025 3.5
    endloop
  endfacet
  facet normal 0 4.44089e-16 1
    outer loop
      vertex -69.5179 -3.97083 3.5
      vertex -71.4184 -3.74006 3.5
      vertex -65 -8.66025 3.5
    endloop
  endfacet
  facet normal 0 4.44089e-16 1
    outer loop
      vertex -71.4184 -3.74006 3.5
      vertex -72.994 -2.65249 3.5
      vertex -65 -8.66025 3.5
    endloop
  endfacet
  facet normal 0 4.44089e-16 1
    outer loop
      vertex -73.8838 -0.957263 3.5
      vertex -73.8838 0.957263 3.5
      vertex -79.7815 2.07912 3.5
    endloop
  endfacet
  facet normal 0 4.44089e-16 1
    outer loop
      vertex -72.994 -2.65249 3.5
      vertex -73.8838 -0.957263 3.5
      vertex -79.7815 2.07912 3.5
    endloop
  endfacet
  facet normal 0 4.44089e-16 1
    outer loop
      vertex -73.8838 0.957263 3.5
      vertex -72.994 2.65249 3.5
      vertex -79.7815 2.07912 3.5
    endloop
  endfacet
  facet normal 0 4.44089e-16 1
    outer loop
      vertex -66.4582 -1.85889 3.5
      vertex -67.7277 -3.29193 3.5
      vertex -61.9098 -5.87785 3.5
    endloop
  endfacet
  facet normal 0 4.44089e-16 1
    outer loop
      vertex -71.4184 3.74007 3.5
      vertex -79.7815 2.07912 3.5
      vertex -72.994 2.65249 3.5
    endloop
  endfacet
  facet normal 0 4.44089e-16 1
    outer loop
      vertex -70 9.94522 3.5
      vertex -79.7815 2.07912 3.5
      vertex -71.4184 3.74007 3.5
    endloop
  endfacet
  facet normal 0 4.44089e-16 1
    outer loop
      vertex -70 9.94522 3.5
      vertex -71.4184 3.74007 3.5
      vertex -70 3.91229 3.5
    endloop
  endfacet
  facet normal 0 4.44089e-16 1
    outer loop
      vertex -71.0453 9.94522 3.5
      vertex -79.7815 2.07912 3.5
      vertex -70 9.94522 3.5
    endloop
  endfacet
  facet normal 0 4.44089e-16 1
    outer loop
      vertex -73.0902 9.51056 3.5
      vertex -79.7815 2.07912 3.5
      vertex -71.0453 9.94522 3.5
    endloop
  endfacet
  facet normal 0 4.44089e-16 1
    outer loop
      vertex -75 8.66025 3.5
      vertex -79.7815 2.07912 3.5
      vertex -73.0902 9.51056 3.5
    endloop
  endfacet
  facet normal 0 4.44089e-16 1
    outer loop
      vertex -76.6913 7.43145 3.5
      vertex -79.7815 2.07912 3.5
      vertex -75 8.66025 3.5
    endloop
  endfacet
  facet normal 0 4.44089e-16 1
    outer loop
      vertex -78.0902 5.87785 3.5
      vertex -79.7815 2.07912 3.5
      vertex -76.6913 7.43145 3.5
    endloop
  endfacet
  facet normal 0 4.44089e-16 1
    outer loop
      vertex -79.1355 4.06737 3.5
      vertex -79.7815 2.07912 3.5
      vertex -78.0902 5.87785 3.5
    endloop
  endfacet
  facet normal 0 4.44089e-16 1
    outer loop
      vertex -66 1.55431e-15 3.5
      vertex -66.4582 -1.85889 3.5
      vertex -60.2185 -2.07912 3.5
    endloop
  endfacet
  facet normal 0 2.22045e-16 1
    outer loop
      vertex -69.5179 3.97084 3.5
      vertex -70 10 3.5
      vertex -70 3.91229 3.5
    endloop
  endfacet
  facet normal 0 2.22045e-16 1
    outer loop
      vertex 30 10 3.5
      vertex -70 10 3.5
      vertex -69.5179 3.97084 3.5
    endloop
  endfacet
  facet normal 0 2.22045e-16 1
    outer loop
      vertex 49.555 9.44986 3.5
      vertex 51.247 9.06366 3.5
      vertex 70 20 3.5
    endloop
  endfacet
  facet normal 0 2.22045e-16 1
    outer loop
      vertex -66.4582 1.85889 3.5
      vertex 30 10 3.5
      vertex -67.7277 3.29194 3.5
    endloop
  endfacet
  facet normal 0 2.22045e-16 1
    outer loop
      vertex -66 3.77476e-15 3.5
      vertex 30 10 3.5
      vertex -66.4582 1.85889 3.5
    endloop
  endfacet
  facet normal 0 2.22045e-16 1
    outer loop
      vertex -66 1.55431e-15 3.5
      vertex 30 10 3.5
      vertex -66 3.77476e-15 3.5
    endloop
  endfacet
  facet normal 0 2.22045e-16 1
    outer loop
      vertex -60 1.55431e-15 3.5
      vertex 30 10 3.5
      vertex -66 1.55431e-15 3.5
    endloop
  endfacet
  facet normal 0 2.22045e-16 1
    outer loop
      vertex -60.2185 -2.07912 3.5
      vertex 30 10 3.5
      vertex -60 1.55431e-15 3.5
    endloop
  endfacet
  facet normal 0 2.22045e-16 1
    outer loop
      vertex -60.8645 -4.06737 3.5
      vertex 30 10 3.5
      vertex -60.2185 -2.07912 3.5
    endloop
  endfacet
  facet normal 0 2.22045e-16 1
    outer loop
      vertex -61.9098 -5.87785 3.5
      vertex 30 10 3.5
      vertex -60.8645 -4.06737 3.5
    endloop
  endfacet
  facet normal 0 2.22045e-16 1
    outer loop
      vertex -63.3087 -7.43145 3.5
      vertex 30 10 3.5
      vertex -61.9098 -5.87785 3.5
    endloop
  endfacet
  facet normal 0 2.22045e-16 1
    outer loop
      vertex -65 -8.66025 3.5
      vertex 30 10 3.5
      vertex -63.3087 -7.43145 3.5
    endloop
  endfacet
  facet normal 0 2.22045e-16 1
    outer loop
      vertex -66.9098 -9.51056 3.5
      vertex 30 10 3.5
      vertex -65 -8.66025 3.5
    endloop
  endfacet
  facet normal 0 2.22045e-16 1
    outer loop
      vertex -68.9547 -9.94522 3.5
      vertex 30 10 3.5
      vertex -66.9098 -9.51056 3.5
    endloop
  endfacet
  facet normal 0 2.22045e-16 1
    outer loop
      vertex 30 -10 3.5
      vertex 30 10 3.5
      vertex -68.9547 -9.94522 3.5
    endloop
  endfacet
  facet normal 0 2.22045e-16 1
    outer loop
      vertex -70 -10 3.5
      vertex -68.9547 -9.94522 3.5
      vertex -70 -9.94522 3.5
    endloop
  endfacet
  facet normal 0 2.22045e-16 1
    outer loop
      vertex 30 -10 3.5
      vertex -68.9547 -9.94522 3.5
      vertex -70 -10 3.5
    endloop
  endfacet
  facet normal 0 2.22045e-16 1
    outer loop
      vertex 48.1981 -8.36777 3.5
      vertex 30 10 3.5
      vertex 30 -10 3.5
    endloop
  endfacet
  facet normal 0 2.22045e-16 1
    outer loop
      vertex 70 -20 3.5
      vertex 30 -10 3.5
      vertex 30 -20 3.5
    endloop
  endfacet
  facet normal 0 2.22045e-16 1
    outer loop
      vertex 48.1981 6.63223 3.5
      vertex 30 10 3.5
      vertex 70 -20 3.5
    endloop
  endfacet
  facet normal 0 2.22045e-16 1
    outer loop
      vertex -69.5179 3.97084 3.5
      vertex -67.7277 3.29194 3.5
      vertex 30 10 3.5
    endloop
  endfacet
  facet normal 0 2.22045e-16 1
    outer loop
      vertex 49.555 5.55014 3.5
      vertex 48.1981 6.63223 3.5
      vertex 70 -20 3.5
    endloop
  endfacet
  facet normal 0 2.22045e-16 1
    outer loop
      vertex 48.1981 8.36777 3.5
      vertex 30 10 3.5
      vertex 48.1981 6.63223 3.5
    endloop
  endfacet
  facet normal 0 2.22045e-16 1
    outer loop
      vertex 49.555 9.44986 3.5
      vertex 30 10 3.5
      vertex 48.1981 8.36777 3.5
    endloop
  endfacet
  facet normal 0 2.22045e-16 1
    outer loop
      vertex 51.247 9.06366 3.5
      vertex 52 7.5 3.5
      vertex 70 20 3.5
    endloop
  endfacet
  facet normal 0 2.22045e-16 1
    outer loop
      vertex 70 20 3.5
      vertex 30 10 3.5
      vertex 49.555 9.44986 3.5
    endloop
  endfacet
  facet normal 0 2.22045e-16 1
    outer loop
      vertex 51.247 -5.93634 3.5
      vertex 52 -7.5 3.5
      vertex 70 -20 3.5
    endloop
  endfacet
  facet normal 0 2.22045e-16 1
    outer loop
      vertex 70 20 3.5
      vertex 52 7.5 3.5
      vertex 70 -20 3.5
    endloop
  endfacet
  facet normal 0 2.22045e-16 1
    outer loop
      vertex 52 7.5 3.5
      vertex 51.247 5.93634 3.5
      vertex 70 -20 3.5
    endloop
  endfacet
  facet normal 0 2.22045e-16 1
    outer loop
      vertex 51.247 5.93634 3.5
      vertex 49.555 5.55014 3.5
      vertex 70 -20 3.5
    endloop
  endfacet
  facet normal 0 2.22045e-16 1
    outer loop
      vertex 49.555 -9.44986 3.5
      vertex 48.1981 -8.36777 3.5
      vertex 30 -10 3.5
    endloop
  endfacet
  facet normal 0 2.22045e-16 1
    outer loop
      vertex 48.1981 -6.63223 3.5
      vertex 30 10 3.5
      vertex 48.1981 -8.36777 3.5
    endloop
  endfacet
  facet normal 0 2.22045e-16 1
    outer loop
      vertex 49.555 -5.55014 3.5
      vertex 30 10 3.5
      vertex 48.1981 -6.63223 3.5
    endloop
  endfacet
  facet normal 0 2.22045e-16 1
    outer loop
      vertex 51.247 -5.93634 3.5
      vertex 30 10 3.5
      vertex 49.555 -5.55014 3.5
    endloop
  endfacet
  facet normal 0 2.22045e-16 1
    outer loop
      vertex 52 -7.5 3.5
      vertex 51.247 -9.06366 3.5
      vertex 70 -20 3.5
    endloop
  endfacet
  facet normal 0 2.22045e-16 1
    outer loop
      vertex 70 -20 3.5
      vertex 30 10 3.5
      vertex 51.247 -5.93634 3.5
    endloop
  endfacet
  facet normal 0 2.22045e-16 1
    outer loop
      vertex 51.247 -9.06366 3.5
      vertex 49.555 -9.44986 3.5
      vertex 70 -20 3.5
    endloop
  endfacet
  facet normal 0 2.22045e-16 1
    outer loop
      vertex 70 -20 3.5
      vertex 49.555 -9.44986 3.5
      vertex 30 -10 3.5
    endloop
  endfacet
  facet normal 0 2.22045e-16 1
    outer loop
      vertex 30 20 3.5
      vertex 30 10 3.5
      vertex 70 20 3.5
    endloop
  endfacet
  facet normal 0 -1 2.22045e-16
    outer loop
      vertex -70 -10 3.5
      vertex -70 -10 -3.5
      vertex 30 -10 -3.5
    endloop
  endfacet
  facet normal 0 -1 2.22045e-16
    outer loop
      vertex 30 -10 3.5
      vertex -70 -10 3.5
      vertex 30 -10 -3.5
    endloop
  endfacet
  facet normal -0.354605 0.935016 -4.15231e-16
    outer loop
      vertex -67.7277 -3.29193 3.5
      vertex -67.7277 -3.29193 -3.5
      vertex -69.5179 -3.97083 3.5
    endloop
  endfacet
  facet normal -0.354605 0.935016 -4.15231e-16
    outer loop
      vertex -69.5179 -3.97083 3.5
      vertex -67.7277 -3.29193 -3.5
      vertex -69.5179 -3.97083 -3.5
    endloop
  endfacet
  facet normal -1 0 0
    outer loop
      vertex -70 10 -3.5
      vertex -70 9.94522 -3.5
      vertex -70 10 3.5
    endloop
  endfacet
  facet normal -1 0 0
    outer loop
      vertex -70 10 3.5
      vertex -70 9.94522 -3.5
      vertex -70 9.94522 3.5
    endloop
  endfacet
  facet normal -1 0 0
    outer loop
      vertex -70 10 3.5
      vertex -70 9.94522 3.5
      vertex -70 3.91229 3.5
    endloop
  endfacet
  facet normal -0.748511 0.663123 -2.94486e-16
    outer loop
      vertex -66.4582 -1.85889 3.5
      vertex -66.4582 -1.85889 -3.5
      vertex -67.7277 -3.29193 3.5
    endloop
  endfacet
  facet normal -0.748511 0.663123 -2.94486e-16
    outer loop
      vertex -67.7277 -3.29193 3.5
      vertex -66.4582 -1.85889 -3.5
      vertex -67.7277 -3.29193 -3.5
    endloop
  endfacet
  facet normal -1 0 0
    outer loop
      vertex 30 -10 -3.5
      vertex 30 -20 -3.5
      vertex 30 -10 3.5
    endloop
  endfacet
  facet normal -1 0 0
    outer loop
      vertex 30 -10 3.5
      vertex 30 -20 -3.5
      vertex 30 -20 3.5
    endloop
  endfacet
  facet normal 0 -1 2.22045e-16
    outer loop
      vertex 30 -20 3.5
      vertex 30 -20 -3.5
      vertex 70 -20 -3.5
    endloop
  endfacet
  facet normal 0 -1 2.22045e-16
    outer loop
      vertex 70 -20 3.5
      vertex 30 -20 3.5
      vertex 70 -20 -3.5
    endloop
  endfacet
  facet normal 1 0 0
    outer loop
      vertex 70 -20 -3.5
      vertex 70 20 -3.5
      vertex 70 20 3.5
    endloop
  endfacet
  facet normal 1 0 0
    outer loop
      vertex 70 -20 3.5
      vertex 70 -20 -3.5
      vertex 70 20 3.5
    endloop
  endfacet
  facet normal 0 1 -2.22045e-16
    outer loop
      vertex 30 20 -3.5
      vertex 30 20 3.5
      vertex 70 20 -3.5
    endloop
  endfacet
  facet normal 0 1 -2.22045e-16
    outer loop
      vertex 70 20 -3.5
      vertex 30 20 3.5
      vertex 70 20 3.5
    endloop
  endfacet
  facet normal -1 0 0
    outer loop
      vertex 30 20 -3.5
      vertex 30 10 -3.5
      vertex 30 20 3.5
    endloop
  endfacet
  facet normal -1 0 0
    outer loop
      vertex 30 20 3.5
      vertex 30 10 -3.5
      vertex 30 10 3.5
    endloop
  endfacet
  facet normal 0 1 -2.22045e-16
    outer loop
      vertex -70 10 -3.5
      vertex -70 10 3.5
      vertex 30 10 -3.5
    endloop
  endfacet
  facet normal 0 1 -2.22045e-16
    outer loop
      vertex 30 10 -3.5
      vertex -70 10 3.5
      vertex 30 10 3.5
    endloop
  endfacet
  facet normal 1 0 0
    outer loop
      vertex 48.1981 8.36777 3.5
      vertex 48.1981 6.63223 3.5
      vertex 48.1981 6.63223 -3.5
    endloop
  endfacet
  facet normal 1 0 0
    outer loop
      vertex 48.1981 8.36777 -3.5
      vertex 48.1981 8.36777 3.5
      vertex 48.1981 6.63223 -3.5
    endloop
  endfacet
  facet normal 0.62349 -0.781831 3.47203e-16
    outer loop
      vertex 49.555 9.44986 -3.5
      vertex 49.555 9.44986 3.5
      vertex 48.1981 8.36777 3.5
    endloop
  endfacet
  facet normal 0.62349 -0.781831 3.47203e-16
    outer loop
      vertex 48.1981 8.36777 -3.5
      vertex 49.555 9.44986 -3.5
      vertex 48.1981 8.36777 3.5
    endloop
  endfacet
  facet normal -0.222521 -0.974928 4.32955e-16
    outer loop
      vertex 51.247 9.06366 -3.5
      vertex 51.247 9.06366 3.5
      vertex 49.555 9.44986 3.5
    endloop
  endfacet
  facet normal -0.222521 -0.974928 4.32955e-16
    outer loop
      vertex 49.555 9.44986 -3.5
      vertex 51.247 9.06366 -3.5
      vertex 49.555 9.44986 3.5
    endloop
  endfacet
  facet normal -0.900969 -0.433884 1.92683e-16
    outer loop
      vertex 52 7.5 3.5
      vertex 51.247 9.06366 3.5
      vertex 52 7.5 -3.5
    endloop
  endfacet
  facet normal -0.900969 -0.433884 1.92683e-16
    outer loop
      vertex 52 7.5 -3.5
      vertex 51.247 9.06366 3.5
      vertex 51.247 9.06366 -3.5
    endloop
  endfacet
  facet normal -0.900969 0.433884 -1.92683e-16
    outer loop
      vertex 52 7.5 3.5
      vertex 52 7.5 -3.5
      vertex 51.247 5.93634 3.5
    endloop
  endfacet
  facet normal -0.900969 0.433884 -1.92683e-16
    outer loop
      vertex 51.247 5.93634 3.5
      vertex 52 7.5 -3.5
      vertex 51.247 5.93634 -3.5
    endloop
  endfacet
  facet normal -0.222521 0.974928 -4.32955e-16
    outer loop
      vertex 51.247 5.93634 3.5
      vertex 51.247 5.93634 -3.5
      vertex 49.555 5.55014 3.5
    endloop
  endfacet
  facet normal -0.222521 0.974928 -4.32955e-16
    outer loop
      vertex 49.555 5.55014 3.5
      vertex 51.247 5.93634 -3.5
      vertex 49.555 5.55014 -3.5
    endloop
  endfacet
  facet normal 0.62349 0.781831 -3.47203e-16
    outer loop
      vertex 49.555 5.55014 3.5
      vertex 49.555 5.55014 -3.5
      vertex 48.1981 6.63223 3.5
    endloop
  endfacet
  facet normal 0.62349 0.781831 -3.47203e-16
    outer loop
      vertex 48.1981 6.63223 3.5
      vertex 49.555 5.55014 -3.5
      vertex 48.1981 6.63223 -3.5
    endloop
  endfacet
  facet normal 1 0 0
    outer loop
      vertex 48.1981 -6.63223 3.5
      vertex 48.1981 -8.36777 3.5
      vertex 48.1981 -8.36777 -3.5
    endloop
  endfacet
  facet normal 1 0 0
    outer loop
      vertex 48.1981 -6.63223 -3.5
      vertex 48.1981 -6.63223 3.5
      vertex 48.1981 -8.36777 -3.5
    endloop
  endfacet
  facet normal 0.62349 -0.781831 3.47203e-16
    outer loop
      vertex 49.555 -5.55014 -3.5
      vertex 49.555 -5.55014 3.5
      vertex 48.1981 -6.63223 3.5
    endloop
  endfacet
  facet normal 0.62349 -0.781831 3.47203e-16
    outer loop
      vertex 48.1981 -6.63223 -3.5
      vertex 49.555 -5.55014 -3.5
      vertex 48.1981 -6.63223 3.5
    endloop
  endfacet
  facet normal -0.222521 -0.974928 4.32955e-16
    outer loop
      vertex 51.247 -5.93634 -3.5
      vertex 51.247 -5.93634 3.5
      vertex 49.555 -5.55014 3.5
    endloop
  endfacet
  facet normal -0.222521 -0.974928 4.32955e-16
    outer loop
      vertex 49.555 -5.55014 -3.5
      vertex 51.247 -5.93634 -3.5
      vertex 49.555 -5.55014 3.5
    endloop
  endfacet
  facet normal -0.900969 -0.433884 1.92683e-16
    outer loop
      vertex 52 -7.5 3.5
      vertex 51.247 -5.93634 3.5
      vertex 52 -7.5 -3.5
    endloop
  endfacet
  facet normal -0.900969 -0.433884 1.92683e-16
    outer loop
      vertex 52 -7.5 -3.5
      vertex 51.247 -5.93634 3.5
      vertex 51.247 -5.93634 -3.5
    endloop
  endfacet
  facet normal -0.900969 0.433884 -1.92683e-16
    outer loop
      vertex 52 -7.5 3.5
      vertex 52 -7.5 -3.5
      vertex 51.247 -9.06366 3.5
    endloop
  endfacet
  facet normal -0.900969 0.433884 -1.92683e-16
    outer loop
      vertex 51.247 -9.06366 3.5
      vertex 52 -7.5 -3.5
      vertex 51.247 -9.06366 -3.5
    endloop
  endfacet
  facet normal -0.222521 0.974928 -4.32955e-16
    outer loop
      vertex 51.247 -9.06366 3.5
      vertex 51.247 -9.06366 -3.5
      vertex 49.555 -9.44986 3.5
    endloop
  endfacet
  facet normal -0.222521 0.974928 -4.32955e-16
    outer loop
      vertex 49.555 -9.44986 3.5
      vertex 51.247 -9.06366 -3.5
      vertex 49.555 -9.44986 -3.5
    endloop
  endfacet
  facet normal 0.62349 0.781831 -3.47203e-16
    outer loop
      vertex 49.555 -9.44986 3.5
      vertex 49.555 -9.44986 -3.5
      vertex 48.1981 -8.36777 3.5
    endloop
  endfacet
  facet normal 0.62349 0.781831 -3.47203e-16
    outer loop
      vertex 48.1981 -8.36777 3.5
      vertex 49.555 -9.44986 -3.5
      vertex 48.1981 -8.36777 -3.5
    endloop
  endfacet
endsolid OpenSCAD_Model
